# AST/ASF file generated using VICON BodyLanguage
# -----------------------------------------------
:version 1.10
:name VICON
:units
  mass 1.0
  length 0.45
  angle deg
:documentation
   .ast/.asf automatically generated from VICON data using
   VICON BodyBuilder and BodyLanguage model FoxedUp or BRILLIANT.MOD
:root
   order TX TY TZ RX RY RZ
   axis XYZ
   position 0 0 0  
   orientation 0 -0 0 
:bonedata
  begin
     id 1 
     name lhipjoint
     direction 0.500677 -0.737119 0.453848 
     length 2.34727 
     axis 0 -0 0  XYZ
  end
  begin
     id 2 
     name lfemur
     direction 0.34202 -0.939693 0  
     length 7.53653  
     axis 0 -0 20  XYZ
    dof rx ry rz
    limits (-160.0 20.0)
           (-70.0 70.0)
           (-60.0 70.0)
  end
  begin
     id 3 
     name ltibia
     direction 0.34202 -0.939693 0   
     length 6.85572   
     axis 0 -0 20   XYZ
    dof rx
    limits (-10.0 170.0)
  end
  begin
     id 4 
     name lfoot
     direction 0.155313 -0.426718 0.890949   
     length 2.18324   
     axis -90 -1.13533e-015 20   XYZ
    dof rx rz
    limits (-45.0 90.0)
           (-70.0 20.0)
  end
  begin
     id 5 
     name ltoes
     direction 1.53474e-011 -4.21647e-011 1   
     length 1.06748   
     axis -90 -1.13533e-015 20   XYZ
    dof rx
    limits (-90.0 20.0)
  end
  begin
     id 6 
     name rhipjoint
     direction -0.632471 -0.659587 0.406111   
     length 2.62319  
     axis 0 -0 0  XYZ 
  end
  begin
     id 7 
     name rfemur
     direction -0.34202 -0.939693 0   
     length 7.21735   
     axis 0 -0 -20   XYZ
    dof rx ry rz
    limits (-160.0 20.0)
           (-70.0 70.0)
           (-70.0 60.0)
  end
  begin
     id 8 
     name rtibia
     direction -0.34202 -0.939693 0   
     length 7.02558   
     axis 0 -0 -20   XYZ
    dof rx
    limits (-10.0 170.0)
 end
 begin
     id 9 
     name rfoot
     direction -0.16057 -0.441164 0.882945   
     length 2.10014  
     axis -90 1.13533e-015 -20   XYZ
    dof rx rz
    limits (-45.0 90.0)
           (-20.0 70.0)
  end
  begin
     id 10 
     name rtoes
     direction -1.53553e-011 -4.2192e-011 1   
     length 1.02554   
     axis -90 1.13533e-015 -20   XYZ
    dof rx
    limits (-90.0 20.0)
  end
  begin
     id 11 
     name lowerback
     direction 0.0401429 0.998861 -0.0258085   
     length 1.80848   
     axis 0 -0 0   XYZ
    dof rx ry rz
    limits (-20.0 45.0)
           (-30.0 30.0)
           (-30.0 30.0)
  end
  begin
     id 12 
     name upperback
     direction -0.0130978 0.999914 -0.000352645   
     length 1.8116   
     axis 0 -0 0   XYZ
    dof rx ry rz
    limits (-20.0 45.0)
           (-30.0 30.0)
           (-30.0 30.0)
  end
  begin
     id 13 
     name thorax
     direction -0.0300198 0.999453 0.0138573   
     length 1.81778   
     axis 0 -0 0   XYZ
    dof rx ry rz
    limits (-20.0 45.0)
           (-30.0 30.0)
           (-30.0 30.0)
  end
  begin
     id 14 
     name lowerneck
     direction -0.0401726 0.999191 -0.00173647   
     length 2.10594   
     axis 0 -0 0   XYZ
    dof rx ry rz
    limits (-20.0 45.0)
           (-30.0 30.0)
           (-30.0 30.0)
  end
  begin
     id 15 
     name upperneck
     direction 0.0119835 0.998501 0.0534085   
     length 2.07325   
     axis 0 -0 0   XYZ
    dof rx ry rz
    limits (-20.0 45.0)
           (-30.0 30.0)
           (-30.0 30.0)
  end
  begin
     id 16
     name head
     direction 0.00628309 0.999826 0.0175921  
     length 2.15096  
     axis 0 -0 0   XYZ
    dof rx ry rz
    limits (-20.0 45.0)
           (-30.0 30.0)
           (-30.0 30.0)
  end
  begin
     id 17 
     name lclavicle
     direction 0.895501 0.429681 -0.115981  
     length 4.18092  
     axis 0 -0 0   XYZ
    dof ry rz
    limits (-20.0 10.0)
           (0.0 20.0)
  end
  begin
     id 18 
     name lhumerus
     direction 1 -4.48961e-011 -3.38433e-028   
     length 5.77237   
     axis 180 -30 -90   XYZ
    dof rx ry rz
    limits (-60.0 90.0)
           (-90.0 90.0)
           (-90.0 90.0)
  end
  begin
     id 19
     name lradius
     direction 1 -4.4901e-011 1.11983e-026   
     length 2.91878   
     axis 180 -30 -90   XYZ
    dof rx
    limits (-10.0 170.0)
  end
  begin
     id 20
     name lwrist
     direction 1 -4.48934e-011 1.88176e-026   
     length 1.45939   
     axis -1.23311e-014 90 90   XYZ
    dof ry
    limits (-180.0 0.0)
 end
  begin
     id 21 
     name lhand
     direction 1 -4.4895e-011 3.76352e-026   
     length 1.06566   
     axis -2.40147e-014 90 90   XYZ
    dof rx rz
    limits (-90.0 90.0)
           (-45.0 45.0)
  end
  begin
     id 22 
     name lfingers
     direction 1 -4.49005e-011 7.52705e-026   
     length 0.859162   
     axis -4.80295e-014 90 90   XYZ
    dof rx
    limits (0.0 90.0)
  end
  begin
     id 23
     name lthumb
     direction 0.707107 -6.34885e-011 0.707107   
     length 1.23359   
     axis -90 45 -9.86935e-015   XYZ
    dof rx rz
    limits (-45.0 45.0)
           (-45.0 45.0)
  end
  begin
     id 24 
     name rclavicle
     direction -0.91006 0.40451 -0.0903492   
     length 4.23293  
     axis 0 -0 0   XYZ 
    dof ry rz
    limits (-10.0 20.0)
           (-20.0 0.0)
  end
  begin
     id 25 
     name rhumerus
     direction -1 -4.4897e-011 1.7415e-027  
     length 5.49854   
     axis 180 30 90   XYZ
    dof rx ry rz
    limits (-90.0 60.0)
           (-90.0 90.0)
           (-90.0 90.0)
  end
  begin
     id 26 
     name rradius
     direction -1 -4.48963e-011 1.21259e-026   
     length 3.1186   
     axis 180 30 90   XYZ
    dof rx
    limits (-10.0 170.0)
  end
  begin
     id 27 
     name rwrist
     direction -1 -4.48967e-011 1.88176e-026   
     length 1.5593   
     axis -1.23311e-014 -90 -90   XYZ
    dof ry
    limits (-180.0 0.0)
  end
  begin
     id 28
     name rhand
     direction -1 -4.4895e-011 3.76352e-026   
     length 0.71207   
     axis -2.40147e-014 -90 -90   XYZ
    dof rx rz
    limits (-90.0 90.0)
           (-45.0 45.0)
  end
  begin
     id 29
     name rfingers
     direction -1 -4.49005e-011 7.52705e-026   
     length 0.574089   
     axis -4.80295e-014 -90 -90   XYZ
    dof rx
    limits (0.0 90.0)
  end
  begin
     id 30
     name rthumb
     direction -0.707107 -6.34982e-011 0.707107   
     length 0.824281   
     axis -90 -45 9.86935e-015   XYZ
    dof rx rz
    limits (-45.0 45.0)
           (-45.0 45.0)
  end
:hierarchy
  begin
    root lhipjoint rhipjoint lowerback
    lhipjoint lfemur
    lfemur ltibia
    ltibia lfoot
    lfoot ltoes
    rhipjoint rfemur
    rfemur rtibia
    rtibia rfoot
    rfoot rtoes
    lowerback upperback
    upperback thorax
    thorax lowerneck lclavicle rclavicle
    lowerneck upperneck
    upperneck head
    lclavicle lhumerus
    lhumerus lradius
    lradius lwrist
    lwrist lhand lthumb
    lhand lfingers
    rclavicle rhumerus
    rhumerus rradius
    rradius rwrist
    rwrist rhand rthumb
    rhand rfingers
  end

#!OML:ASF C:\ViconDB\ViconDB\414\Spring2016\042216\male.ASF
:FULLY-SPECIFIED
:DEGREES
190
root 5.76449 20.8239 9.19775 -148.304 63.9944 -159.253
lowerback -0.535373 -1.25394 7.10371
upperback -0.798546 -1.67295 -0.202389
thorax -0.735632 -0.879258 -4.18735
lowerneck -1.52797 8.16648 -7.86766
upperneck -18.19 12.063 2.74936
head -5.91581 6.51397 1.49972
rclavicle -1.5704e-014 6.36111e-015
rhumerus -59.1311 1.67214 -80.8955
rradius 28.9405
rwrist 24.5744
rhand 12.2492 -18.5521
rfingers 7.12502
rthumb 37.2564 -44.5499
lclavicle -1.5704e-014 6.36111e-015
lhumerus -62.0125 17.5619 70.2247
lradius 41.4822
lwrist -6.92053
lhand -13.0123 12.9775
lfingers 7.12502
lthumb 13.0814 42.5473
rfemur -14.3641 -5.4994 28.4203
rtibia 22.0285
rfoot 13.9493 -12.0864
rtoes -6.65495
lfemur -23.694 5.01817 -11.3497
ltibia 34.1881
lfoot 0.638008 7.82831
ltoes -22.0506
191
root 5.855 20.4563 9.18255 -147.483 63.6652 -158.947
lowerback -1.36373 -1.19127 7.46303
upperback -0.941863 -1.64924 -0.0953902
thorax -0.423821 -0.859565 -4.29643
lowerneck -1.68714 8.11198 -8.1577
upperneck -17.7816 11.9784 2.90941
head -5.78308 6.47203 1.61626
rclavicle 2.18663e-015 1.82882e-014
rhumerus -61.3414 1.33925 -79.2116
rradius 29.192
rwrist 24.4558
rhand 11.6215 -18.5736
rfingers 7.12502
rthumb 36.6626 -44.7245
lclavicle 2.18663e-015 1.82882e-014
lhumerus -63.7979 16.6288 70.0581
lradius 41.6988
lwrist -6.89348
lhand -12.2674 12.3927
lfingers 7.12502
lthumb 13.7993 41.915
rfemur -14.0862 -3.3992 28.2308
rtibia 18.8987
rfoot 13.2191 -14.2962
rtoes -7.908
lfemur -23.9512 3.51016 -10.7444
ltibia 32.5926
lfoot 0.478492 9.53705
ltoes -23.4287
192
root 5.93223 20.077 9.16978 -146.944 63.3405 -158.963
lowerback -2.09107 -1.15298 7.76808
upperback -1.05225 -1.65688 -0.053465
thorax -0.139297 -0.855167 -4.44064
lowerneck -1.74933 8.02342 -8.36451
upperneck -17.6015 11.8416 2.93398
head -5.7223 6.41221 1.67141
rclavicle 6.95746e-015 3.4191e-014
rhumerus -63.3652 1.12191 -77.6176
rradius 29.4852
rwrist 25.2682
rhand 11.5402 -18.7881
rfingers 7.12502
rthumb 36.5856 -44.9586
lclavicle 6.95746e-015 3.4191e-014
lhumerus -65.397 15.9721 69.6568
lradius 41.959
lwrist -6.97068
lhand -11.4882 11.9868
lfingers 7.12502
lthumb 14.5501 41.4565
rfemur -14.0823 -0.160075 27.6465
rtibia 16.5124
rfoot 13.2782 -17.6701
rtoes -7.27964
lfemur -24.4121 1.89403 -10.2231
ltibia 31.6578
lfoot 0.399178 11.2246
ltoes -23.594
193
root 5.99194 19.7031 9.16445 -146.419 63.0559 -158.967
lowerback -2.58948 -1.11056 8.02122
upperback -1.10476 -1.64515 -0.00907786
thorax 0.0808609 -0.841506 -4.54816
lowerneck -1.82335 7.92098 -8.44765
upperneck -17.6339 11.6915 2.80659
head -5.70914 6.35568 1.65743
rclavicle 4.9895e-014 -7.15625e-015
rhumerus -65.0667 0.585574 -75.7317
rradius 29.6181
rwrist 26.6795
rhand 11.6325 -18.5471
rfingers 7.12502
rthumb 36.6731 -44.6954
lclavicle 4.9895e-014 -7.15625e-015
lhumerus -66.6465 15.5226 69.2318
lradius 41.9916
lwrist -7.4578
lhand -11.2738 11.7598
lfingers 7.12502
lthumb 14.7568 41.2145
rfemur -14.4118 3.26005 26.9597
rtibia 14.9628
rfoot 13.5574 -20.9962
rtoes -7.25621
lfemur -24.98 0.642075 -9.76299
ltibia 31.2595
lfoot 0.57726 12.6493
ltoes -23.7791
194
root 6.03618 19.3176 9.1566 -146.144 63.0501 -159.026
lowerback -2.82168 -1.0264 8.20828
upperback -1.03848 -1.56262 -0.0511989
thorax 0.284684 -0.790836 -4.70225
lowerneck -1.85984 7.88061 -8.40958
upperneck -17.7911 11.6235 2.57778
head -5.73358 6.34154 1.5836
rclavicle -3.75703e-014 8.74653e-015
rhumerus -66.4514 -0.137236 -73.7725
rradius 29.4921
rwrist 28.2488
rhand 11.5164 -18.8217
rfingers 7.12502
rthumb 36.5632 -44.9979
lclavicle -3.75703e-014 8.74653e-015
lhumerus -67.5648 15.3069 68.7626
lradius 41.8071
lwrist -7.88614
lhand -11.7256 11.7178
lfingers 7.12502
lthumb 14.3214 41.2038
rfemur -14.8425 6.00158 26.1449
rtibia 14.3566
rfoot 13.4705 -23.3863
rtoes -8.0233
lfemur -25.3009 0.228514 -9.70756
ltibia 31.2903
lfoot 0.801639 13.5975
ltoes -24.7362
195
root 6.05409 18.9207 9.16417 -146.088 62.9368 -159.33
lowerback -2.66677 -0.993595 8.29517
upperback -0.979882 -1.51071 -0.104139
thorax 0.262125 -0.765163 -4.80238
lowerneck -2.06125 7.76792 -8.28035
upperneck -17.8781 11.4788 2.37275
head -5.6994 6.28722 1.51785
rclavicle -3.06128e-014 -8.74653e-015
rhumerus -67.4967 -0.765551 -72.0686
rradius 29.1117
rwrist 29.9249
rhand 11.802 -19.0325
rfingers 7.12502
rthumb 36.8334 -45.1399
lclavicle -3.06128e-014 -8.74653e-015
lhumerus -68.0851 15.2916 68.1585
lradius 41.1277
lwrist -9.42297
lhand -12.6241 11.2607
lfingers 7.12502
lthumb 13.4555 40.8061
rfemur -15.654 5.90208 25.6988
rtibia 14.4624
rfoot 14.238 -22.7373
rtoes -8.47869
lfemur -25.9121 0.355184 -9.85379
ltibia 31.9401
lfoot 0.906685 13.3138
ltoes -24.9495
196
root 6.04565 18.5142 9.18702 -146.11 62.785 -159.667
lowerback -1.98328 -0.976668 8.35745
upperback -0.939711 -1.42812 -0.109069
thorax -0.0697545 -0.737568 -4.82634
lowerneck -2.25487 7.54949 -8.48645
upperneck -18.1177 11.235 2.40538
head -5.74263 6.19806 1.57783
rclavicle 3.47873e-014 -1.03368e-014
rhumerus -68.1172 -1.42123 -70.519
rradius 28.2857
rwrist 31.6761
rhand 11.7015 -19.6414
rfingers 7.12502
rthumb 36.7384 -45.7731
lclavicle 3.47873e-014 -1.03368e-014
lhumerus -68.1612 15.3446 67.8627
lradius 40.5681
lwrist -9.96035
lhand -13.8574 11.1583
lfingers 7.12502
lthumb 12.2666 40.7785
rfemur -16.822 3.85495 25.6672
rtibia 15.451
rfoot 11.1462 -19.0201
rtoes -23.9582
lfemur -26.907 1.20781 -10.2259
ltibia 33.5103
lfoot 0.13433 11.5266
ltoes -20.2169
197
root 6.00719 18.1337 9.21705 -146.546 62.5836 -160.161
lowerback -0.74116 -1.05696 8.42933
upperback -0.819909 -1.42614 -0.159779
thorax -0.646204 -0.759231 -4.89445
lowerneck -2.52034 7.37944 -8.37702
upperneck -18.3454 11.0467 2.25894
head -5.74455 6.12976 1.53459
rclavicle 8.54774e-015 7.95139e-016
rhumerus -68.3061 -1.73418 -69.639
rradius 27.257
rwrist 32.9954
rhand 11.8714 -19.4988
rfingers 7.12502
rthumb 36.899 -45.5893
lclavicle 8.54774e-015 7.95139e-016
lhumerus -67.8812 15.4924 67.7053
lradius 40.0262
lwrist -10.2551
lhand -14.9366 11.3437
lfingers 7.12502
lthumb 11.2259 41.0233
rfemur -17.8656 0.305728 26.0116
rtibia 17.8877
rfoot 4.07726 -13.7706
rtoes -28.5225
lfemur -27.4443 1.78681 -10.8258
ltibia 35.7832
lfoot -12.467 9.35744
ltoes -32.4611
198
root 5.94795 17.8082 9.25486 -147.281 62.5765 -160.801
lowerback 0.825363 -1.13122 8.17271
upperback -0.583938 -1.39233 -0.182325
thorax -1.27083 -0.760466 -4.74498
lowerneck -2.54786 7.23801 -8.33905
upperneck -19.0777 10.9117 2.0599
head -5.95148 6.10969 1.45916
rclavicle -1.11319e-014 -3.97569e-015
rhumerus -68.0248 -2.44413 -68.3192
rradius 26.065
rwrist 35.4356
rhand 12.0019 -19.2094
rfingers 7.12502
rthumb 37.0226 -45.268
lclavicle -1.11319e-014 -3.97569e-015
lhumerus -67.4289 15.7426 67.8362
lradius 39.9913
lwrist -10.3476
lhand -15.7086 11.9114
lfingers 7.12502
lthumb 10.4813 41.6301
rfemur -18.2739 -1.80707 25.8669
rtibia 21.6954
rfoot -3.96245 -10.0972
rtoes -24.1963
lfemur -27.5984 1.49073 -11.1324
ltibia 38.6166
lfoot -19.8793 9.96502
ltoes -27.6527
199
root 5.88781 17.5342 9.29054 -148.787 62.7563 -161.968
lowerback 2.97155 -1.30722 7.83116
upperback -0.367648 -1.45854 -0.48542
thorax -2.26227 -0.825927 -4.8268
lowerneck -1.81087 7.23283 -7.84244
upperneck -20.4923 10.8949 1.54425
head -6.47032 6.14147 1.15449
rclavicle 3.97569e-015 3.4191e-014
rhumerus -67.4881 -3.55109 -67.1384
rradius 24.7442
rwrist 37.9982
rhand 11.9281 -18.9204
rfingers 7.12502
rthumb 36.9527 -44.9971
lclavicle 3.97569e-015 3.4191e-014
lhumerus -66.6345 16.0861 67.7135
lradius 39.9563
lwrist -9.58234
lhand -15.7192 12.704
lfingers 7.12502
lthumb 10.471 42.4232
rfemur -19.1943 -2.46697 24.9783
rtibia 26.3158
rfoot -10.7311 -7.30338
rtoes -19.1384
lfemur -28.336 1.72515 -11.9534
ltibia 41.8573
lfoot -25.1754 9.71463
ltoes -26.4332
200
root 5.82538 17.2367 9.32968 -150.121 62.7683 -162.769
lowerback 5.01844 -1.464 7.36575
upperback 0.0478647 -1.5235 -0.453189
thorax -2.97703 -0.863163 -4.49182
lowerneck -0.61927 7.1401 -7.69083
upperneck -22.51 10.7082 0.801553
head -7.27572 6.14827 0.800348
rclavicle 4.69132e-014 -2.38542e-015
rhumerus -66.4858 -4.35033 -66.195
rradius 23.6872
rwrist 41.0268
rhand 11.7191 -18.8358
rfingers 7.12502
rthumb 36.755 -44.9632
lclavicle 4.69132e-014 -2.38542e-015
lhumerus -65.4037 16.6872 68.156
lradius 39.7597
lwrist -9.48718
lhand -15.585 12.988
lfingers 7.12502
lthumb 10.6005 42.7007
rfemur -21.185 -4.50328 24.7623
rtibia 31.5781
rfoot -16.6782 -5.11477
rtoes -18.39
lfemur -29.4315 2.4142 -12.6474
ltibia 45.4038
lfoot -29.7053 11.9375
ltoes -25.4263
201
root 5.73893 16.9162 9.39565 -151.826 63.0144 -163.761
lowerback 7.51023 -1.59194 6.48749
upperback 0.439685 -1.56148 -0.4415
thorax -3.94864 -0.8831 -3.93851
lowerneck 0.53055 7.15722 -7.50377
upperneck -24.2231 10.6551 0.141815
head -8.00191 6.2065 0.4586
rclavicle 7.95139e-015 3.97569e-015
rhumerus -65.0518 -5.22391 -65.6021
rradius 22.748
rwrist 43.5074
rhand 11.3073 -19.3626
rfingers 7.12502
rthumb 36.3652 -45.5885
lclavicle 7.95139e-015 3.97569e-015
lhumerus -63.7242 17.2278 68.8821
lradius 39.1315
lwrist -9.42795
lhand -15.7281 12.9878
lfingers 7.12502
lthumb 10.4625 42.7074
rfemur -23.4822 -6.31984 24.6113
rtibia 36.851
rfoot -21.6474 -4.86016
rtoes -18.2334
lfemur -30.5196 3.71261 -13.5662
ltibia 49.2576
lfoot -33.8918 13.1004
ltoes -19.6008
